<svg xmlns="http://www.w3.org/2000/svg" viewBox="0 0 64 64"><path fill="#5aaae7" d="M51,8V56a5,5,0,0,1-5,5H18a5,5,0,0,1-5-5V8a5,5,0,0,1,5-5H46A5,5,0,0,1,51,8Z"/><path fill="#479fe3" d="M51,19.51V56a5,5,0,0,1-5,5H18a5,5,0,0,1-3.01-1.01A78.81,78.81,0,0,0,30.47,48.32,86.5,86.5,0,0,0,37.32,41,98.633,98.633,0,0,0,51,19.51Z"/><path fill="#e6e7e8" d="M34,53H30a2,2,0,0,0,0,4h4a2,2,0,0,0,0-4Z"/><polygon fill="#3d9ae2" points="51 41 51 49 32 49 30.47 48.32 28 47.22 23 45 28 42.78 32 41 51 41"/><path fill="#e6e7e8" d="M53,39a4,4,0,1,1,0,8H51V39Z"/><polygon fill="#d1d3d4" points="51 39 51 47 47 47 47 43 47 39 51 39"/><rect width="17" height="4" x="30" y="43" fill="#00ccb3"/><rect width="17" height="4" x="30" y="39" fill="#00b39d"/><rect width="14" height="12" x="21" y="15" fill="#3d9ae2"/><rect width="14" height="12" x="19" y="13" fill="#ffd422"/><polygon fill="#acabb1" points="30 43 30 47 26 45.22 26 40.78 30 39 30 43"/><polygon fill="#898890" points="26 40.78 26 45.22 21 43 26 40.78"/><rect width="2" height="2" x="25" y="6" fill="#3d9ae2"/><rect width="6" height="2" x="29" y="6" fill="#3d9ae2"/><rect width="10" height="2" x="36" y="12" fill="#1e81ce"/><rect width="10" height="2" x="36" y="16" fill="#1e81ce"/><rect width="10" height="2" x="36" y="20" fill="#1e81ce"/><rect width="10" height="2" x="36" y="24" fill="#1e81ce"/><rect width="4" height="2" x="18" y="30" fill="#1e81ce"/><rect width="10" height="2" x="24" y="30" fill="#1e81ce"/><rect width="16" height="2" x="18" y="34" fill="#1e81ce"/></svg>